<svg width="38" height="38" viewBox="0 0 38 38" fill="none" xmlns="http://www.w3.org/2000/svg">
<g clip-path="url(#clip0_500_1213)">
<path d="M33.6834 29.2047C33.1259 30.4925 32.4661 31.678 31.7016 32.7678C30.6595 34.2536 29.8063 35.2821 29.1487 35.8532C28.1294 36.7906 27.0372 37.2707 25.8677 37.298C25.0281 37.298 24.0156 37.0591 22.837 36.5745C21.6545 36.0921 20.5678 35.8532 19.5742 35.8532C18.5321 35.8532 17.4144 36.0921 16.219 36.5745C15.0217 37.0591 14.0572 37.3117 13.3198 37.3367C12.1983 37.3845 11.0804 36.8907 9.96458 35.8532C9.2524 35.232 8.36162 34.1672 7.29449 32.6586C6.14955 31.0477 5.20825 29.1797 4.47082 27.05C3.68106 24.7496 3.28516 22.5221 3.28516 20.3655C3.28516 17.8952 3.81895 15.7646 4.88812 13.9791C5.72839 12.545 6.84626 11.4137 8.24535 10.5832C9.64444 9.75273 11.1562 9.32952 12.7842 9.30245C13.6749 9.30245 14.8431 9.57799 16.2947 10.1195C17.7423 10.6629 18.6718 10.9384 19.0793 10.9384C19.3839 10.9384 20.4165 10.6162 22.1669 9.97389C23.8222 9.37821 25.2192 9.13157 26.3637 9.22873C29.465 9.47901 31.7949 10.7015 33.3444 12.9041C30.5708 14.5846 29.1988 16.9384 29.2261 19.958C29.2511 22.31 30.1043 24.2672 31.7812 25.8213C32.5412 26.5426 33.3899 27.1 34.3341 27.4959C34.1294 28.0898 33.9132 28.6586 33.6834 29.2047ZM26.5708 1.21595C26.5708 3.05944 25.8973 4.7807 24.5548 6.37388C22.9348 8.26786 20.9753 9.36229 18.8504 9.18959C18.8233 8.96843 18.8076 8.73566 18.8076 8.49107C18.8076 6.72132 19.578 4.82734 20.9462 3.27876C21.6292 2.49468 22.4979 1.84274 23.5514 1.32266C24.6026 0.810352 25.5969 0.527033 26.5321 0.478516C26.5594 0.724961 26.5708 0.971422 26.5708 1.21593V1.21595Z" fill="black"/>
</g>
<defs>
<clipPath id="clip0_500_1213">
<rect width="36.8613" height="36.8613" fill="white" transform="translate(0.212891 0.478027)"/>
</clipPath>
</defs>
</svg>
