<svg width="38" height="38" viewBox="0 0 38 38" fill="none" xmlns="http://www.w3.org/2000/svg">
<g clip-path="url(#clip0_500_1212)">
<path d="M34.3103 0.564941H3.03931C2.32103 0.564941 1.63218 0.850275 1.12428 1.35817C0.616388 1.86607 0.331055 2.55492 0.331055 3.27319V34.5442C0.331055 35.2625 0.616388 35.9513 1.12428 36.4592C1.63218 36.9671 2.32103 37.2524 3.03931 37.2524H34.3103C35.0286 37.2524 35.7174 36.9671 36.2253 36.4592C36.7332 35.9513 37.0186 35.2625 37.0186 34.5442V3.27319C37.0186 2.55492 36.7332 1.86607 36.2253 1.35817C35.7174 0.850275 35.0286 0.564941 34.3103 0.564941ZM11.266 31.8181H5.75011V14.2973H11.266V31.8181ZM8.50422 11.8693C7.87854 11.8658 7.26792 11.677 6.74943 11.3267C6.23094 10.9765 5.82782 10.4805 5.59094 9.90143C5.35405 9.32232 5.29403 8.68601 5.41844 8.07282C5.54284 7.45962 5.84611 6.89702 6.28995 6.45601C6.7338 6.015 7.29834 5.71536 7.91232 5.59489C8.52631 5.47442 9.16222 5.53853 9.7398 5.77913C10.3174 6.01973 10.8107 6.42602 11.1576 6.94675C11.5045 7.46748 11.6894 8.07929 11.6889 8.70498C11.6948 9.12388 11.6163 9.53968 11.4581 9.9276C11.2999 10.3155 11.0652 10.6676 10.768 10.9629C10.4708 11.2582 10.1172 11.4906 9.72829 11.6463C9.33936 11.802 8.92307 11.8779 8.50422 11.8693ZM31.597 31.8334H26.0836V22.2615C26.0836 19.4386 24.8837 18.5673 23.3346 18.5673C21.699 18.5673 20.0939 19.8004 20.0939 22.3329V31.8334H14.578V14.31H19.8824V16.738H19.9538C20.4863 15.6603 22.3512 13.8183 25.197 13.8183C28.2747 13.8183 31.5995 15.645 31.5995 20.9953L31.597 31.8334Z" fill="#0A66C2"/>
</g>
<defs>
<clipPath id="clip0_500_1212">
<rect width="36.6875" height="36.6875" fill="white" transform="translate(0.331055 0.564941)"/>
</clipPath>
</defs>
</svg>
