<svg width="38" height="38" viewBox="0 0 38 38" fill="none" xmlns="http://www.w3.org/2000/svg">
<g clip-path="url(#clip0_500_1211)">
<path d="M18.7939 15.5732V22.6773H28.6662C28.2327 24.9619 26.9318 26.8964 24.9807 28.1971L30.9341 32.8165C34.4027 29.6148 36.4038 24.912 36.4038 19.3256C36.4038 18.0248 36.2871 16.774 36.0703 15.5734L18.7939 15.5732Z" fill="#4285F4"/>
<path d="M8.51345 22.3999L7.17075 23.4277L2.41797 27.1298C5.43634 33.1164 11.6227 37.2522 18.7934 37.2522C23.7461 37.2522 27.8984 35.6179 30.9335 32.8164L24.9802 28.1971C23.3459 29.2977 21.2614 29.9648 18.7934 29.9648C14.0241 29.9648 9.97188 26.7463 8.52095 22.4105L8.51345 22.3999Z" fill="#34A853"/>
<path d="M2.41784 10.6875C1.16719 13.1555 0.450195 15.9404 0.450195 18.9087C0.450195 21.877 1.16719 24.662 2.41784 27.13C2.41784 27.1465 8.52141 22.3939 8.52141 22.3939C8.15453 21.2933 7.93768 20.126 7.93768 18.9085C7.93768 17.691 8.15453 16.5238 8.52141 15.4231L2.41784 10.6875Z" fill="#FBBC05"/>
<path d="M18.7938 7.86908C21.4954 7.86908 23.8967 8.80292 25.8144 10.604L31.0674 5.35105C27.8822 2.38275 23.7467 0.564941 18.7938 0.564941C11.6231 0.564941 5.43634 4.68394 2.41797 10.6874L8.52135 15.4234C9.97209 11.0876 14.0244 7.86908 18.7938 7.86908Z" fill="#EA4335"/>
</g>
<defs>
<clipPath id="clip0_500_1211">
<rect width="36.6875" height="36.6875" fill="white" transform="translate(0.450195 0.564941)"/>
</clipPath>
</defs>
</svg>
